<svg xmlns="http://www.w3.org/2000/svg" xmlns:xlink="http://www.w3.org/1999/xlink" viewBox="0 0 600 600" width="600" height="600" preserveAspectRatio="xMidYMid meet" style="width: 100%; height: 100%; transform: translate3d(0px, 0px, 0px); content-visibility: visible;"><defs><clipPath id="__lottie_element_46"><rect width="600" height="600" x="0" y="0"></rect></clipPath></defs><g clip-path="url(#__lottie_element_46)"><g transform="matrix(1,0,0,1,456,341.28753662109375)" opacity="1" style="display: block;"><g opacity="1" transform="matrix(1,0,0,1,-247.30099487304688,-57.30099868774414)"><path fill="rgb(23,23,23)" fill-opacity="1" d=" M0,-12.699000358581543 C7.008578300476074,-12.699000358581543 12.699000358581543,-7.008578300476074 12.699000358581543,0 C12.699000358581543,7.008578300476074 7.008578300476074,12.699000358581543 0,12.699000358581543 C-7.008578300476074,12.699000358581543 -12.699000358581543,7.008578300476074 -12.699000358581543,0 C-12.699000358581543,-7.008578300476074 -7.008578300476074,-12.699000358581543 0,-12.699000358581543z"></path><path stroke-linecap="butt" stroke-linejoin="miter" fill-opacity="0" stroke-miterlimit="4" stroke="rgb(135,135,135)" stroke-opacity="1" stroke-width="0" d=" M0,-12.699000358581543 C7.008578300476074,-12.699000358581543 12.699000358581543,-7.008578300476074 12.699000358581543,0 C12.699000358581543,7.008578300476074 7.008578300476074,12.699000358581543 0,12.699000358581543 C-7.008578300476074,12.699000358581543 -12.699000358581543,7.008578300476074 -12.699000358581543,0 C-12.699000358581543,-7.008578300476074 -7.008578300476074,-12.699000358581543 0,-12.699000358581543z"></path></g></g><g transform="matrix(1,0,0,1,516,356.5049133300781)" opacity="1" style="display: block;"><g opacity="1" transform="matrix(1,0,0,1,-247.30099487304688,-57.30099868774414)"><path fill="rgb(23,23,23)" fill-opacity="1" d=" M0,-12.699000358581543 C7.008578300476074,-12.699000358581543 12.699000358581543,-7.008578300476074 12.699000358581543,0 C12.699000358581543,7.008578300476074 7.008578300476074,12.699000358581543 0,12.699000358581543 C-7.008578300476074,12.699000358581543 -12.699000358581543,7.008578300476074 -12.699000358581543,0 C-12.699000358581543,-7.008578300476074 -7.008578300476074,-12.699000358581543 0,-12.699000358581543z"></path><path stroke-linecap="butt" stroke-linejoin="miter" fill-opacity="0" stroke-miterlimit="4" stroke="rgb(135,135,135)" stroke-opacity="1" stroke-width="0" d=" M0,-12.699000358581543 C7.008578300476074,-12.699000358581543 12.699000358581543,-7.008578300476074 12.699000358581543,0 C12.699000358581543,7.008578300476074 7.008578300476074,12.699000358581543 0,12.699000358581543 C-7.008578300476074,12.699000358581543 -12.699000358581543,7.008578300476074 -12.699000358581543,0 C-12.699000358581543,-7.008578300476074 -7.008578300476074,-12.699000358581543 0,-12.699000358581543z"></path></g></g><g transform="matrix(1,0,0,1,576,357.3009948730469)" opacity="1" style="display: block;"><g opacity="1" transform="matrix(1,0,0,1,-247.30099487304688,-57.30099868774414)"><path fill="rgb(23,23,23)" fill-opacity="1" d=" M0,-12.699000358581543 C7.008578300476074,-12.699000358581543 12.699000358581543,-7.008578300476074 12.699000358581543,0 C12.699000358581543,7.008578300476074 7.008578300476074,12.699000358581543 0,12.699000358581543 C-7.008578300476074,12.699000358581543 -12.699000358581543,7.008578300476074 -12.699000358581543,0 C-12.699000358581543,-7.008578300476074 -7.008578300476074,-12.699000358581543 0,-12.699000358581543z"></path><path stroke-linecap="butt" stroke-linejoin="miter" fill-opacity="0" stroke-miterlimit="4" stroke="rgb(135,135,135)" stroke-opacity="1" stroke-width="0" d=" M0,-12.699000358581543 C7.008578300476074,-12.699000358581543 12.699000358581543,-7.008578300476074 12.699000358581543,0 C12.699000358581543,7.008578300476074 7.008578300476074,12.699000358581543 0,12.699000358581543 C-7.008578300476074,12.699000358581543 -12.699000358581543,7.008578300476074 -12.699000358581543,0 C-12.699000358581543,-7.008578300476074 -7.008578300476074,-12.699000358581543 0,-12.699000358581543z"></path></g></g><g transform="matrix(1,0,0,1,636,357.3009948730469)" opacity="1" style="display: block;"><g opacity="1" transform="matrix(1,0,0,1,-247.30099487304688,-57.30099868774414)"><path fill="rgb(23,23,23)" fill-opacity="1" d=" M0,-12.699000358581543 C7.008578300476074,-12.699000358581543 12.699000358581543,-7.008578300476074 12.699000358581543,0 C12.699000358581543,7.008578300476074 7.008578300476074,12.699000358581543 0,12.699000358581543 C-7.008578300476074,12.699000358581543 -12.699000358581543,7.008578300476074 -12.699000358581543,0 C-12.699000358581543,-7.008578300476074 -7.008578300476074,-12.699000358581543 0,-12.699000358581543z"></path><path stroke-linecap="butt" stroke-linejoin="miter" fill-opacity="0" stroke-miterlimit="4" stroke="rgb(135,135,135)" stroke-opacity="1" stroke-width="0" d=" M0,-12.699000358581543 C7.008578300476074,-12.699000358581543 12.699000358581543,-7.008578300476074 12.699000358581543,0 C12.699000358581543,7.008578300476074 7.008578300476074,12.699000358581543 0,12.699000358581543 C-7.008578300476074,12.699000358581543 -12.699000358581543,7.008578300476074 -12.699000358581543,0 C-12.699000358581543,-7.008578300476074 -7.008578300476074,-12.699000358581543 0,-12.699000358581543z"></path></g></g></g></svg>